<svg width="5521" height="746" viewBox="0 0 5521 746" fill="none" xmlns="http://www.w3.org/2000/svg">
<path d="M394.215 328.184L66.465 656.349L0.924316 590.726L263.134 328.184L0.924316 65.6417L66.465 0.064209L394.215 328.184Z" fill="#F0F0F0"/>
<path fill-rule="evenodd" clip-rule="evenodd" d="M1424.45 74.5625C1424.45 115.95 1391.35 149.061 1350.78 149.061C1310.23 149.061 1277.12 115.95 1276.29 74.5625C1276.29 33.1746 1310.22 0.064209 1350.78 0.064209C1391.34 0.064209 1424.45 34.0016 1424.45 74.5625ZM1398.8 325.374C1411.21 324.547 1423.63 329.513 1432.73 338.617L1432.73 338.621C1441.84 347.726 1446.81 360.142 1445.15 373.386L1425.29 602.675C1423.63 625.853 1404.59 643.236 1381.41 643.236H1378.1C1354.1 640.751 1335.89 619.23 1337.54 595.224L1352.44 417.256L1292.84 420.568C1307.75 450.367 1316.02 484.304 1316.02 519.899C1316.02 579.497 1292.84 634.129 1254.77 674.69L1197.65 617.573C1221.66 591.913 1235.73 557.147 1235.73 519.898C1235.73 439.606 1170.34 374.213 1090.04 374.213C1052.8 374.213 1018.03 389.11 992.368 412.289L935.252 355.173C967.534 324.547 1008.09 303.853 1053.62 296.403L1163.71 169.755L1101.63 133.333L1026.31 200.381C1008.1 216.936 980.779 215.279 964.223 197.07C947.668 178.86 949.326 151.543 967.535 134.988L1066.87 46.4175C1080.94 34.001 1101.63 31.5197 1118.19 41.4515L1320.99 159.821C1331.75 166.444 1338.37 176.376 1340.85 187.965C1345.82 204.521 1342.51 222.733 1330.09 236.804L1244.83 333.652L1398.8 325.374ZM1078.87 664.33C1003.77 658.603 944.355 595.604 944.355 519.069C944.355 488.443 953.46 461.126 969.188 437.121L911.245 379.178C881.446 417.254 863.233 466.092 863.233 518.241C863.599 574.077 883.432 624.925 916.207 664.33H394.215V745.875H1081.38V745.713C1084.26 745.82 1087.14 745.875 1090.04 745.875C1143.02 745.875 1191.03 727.665 1229.1 697.863L1171.16 639.92C1147.98 655.648 1120.67 664.753 1090.04 664.753L1090.04 664.754C1087.13 664.754 1084.25 664.669 1081.38 664.5V664.33H1078.87Z" fill="#F0F0F0"/>
<path d="M1748.1 526.567C1748.1 593.474 1805.35 635.106 1875.23 635.106C1928.01 635.106 1971.13 620.237 1998.63 581.58L2012.02 626.185H2116.84C2109.4 594.218 2104.2 530.284 2104.2 481.962V400.929C2104.2 289.417 2045.47 247.042 1940.65 247.042C1855.9 247.042 1796.42 284.213 1771.89 333.279L1867.05 367.476C1874.48 337.739 1899.76 323.614 1930.98 323.614C1970.38 323.614 1992.69 339.226 1992.69 381.601V395.726C1849.95 406.133 1748.1 436.613 1748.1 526.567ZM1994.92 462.633V471.554C1994.92 539.205 1961.46 557.79 1916.86 557.79C1887.12 557.79 1864.82 542.179 1864.82 518.389C1864.82 479.732 1916.86 469.324 1994.92 462.633Z" fill="#F0F0F0"/>
<path d="M2217.09 293.134H2330.09V626.185H2442.34V129.583H2356.85C2330.09 196.49 2295.15 201.694 2217.09 201.694V293.134Z" fill="#F0F0F0"/>
<path d="M2591.21 293.134H2704.21V626.185H2816.46V129.583H2730.97C2704.21 196.49 2669.27 201.694 2591.21 201.694V293.134Z" fill="#F0F0F0"/>
<path d="M2930.38 257.45L3071.63 623.954L3067.92 633.619C3056.77 661.869 3048.59 664.099 3001.01 664.099H2978.71V745.875H3015.13C3111.03 745.875 3138.54 719.855 3174.22 626.185L3315.47 257.45H3194.3L3123.67 487.909L3051.56 257.45H2930.38Z" fill="#F0F0F0"/>
<path d="M3386.53 562.251C3386.53 602.395 3419.24 635.106 3459.38 635.106C3498.78 635.106 3531.49 602.395 3531.49 562.251C3531.49 522.106 3498.78 490.139 3459.38 490.139C3419.24 490.139 3386.53 522.106 3386.53 562.251Z" fill="#F0F0F0"/>
<path d="M3640.29 129.583V626.185H3739.16L3753.29 576.376C3777.08 617.264 3826.14 635.106 3865.54 635.106C3960.7 635.106 4028.35 559.277 4028.35 438.844C4028.35 318.41 3960.7 247.042 3865.54 247.042C3826.14 247.042 3777.08 267.115 3753.29 308.002V129.583H3640.29ZM3748.08 441.074C3748.08 365.989 3785.26 334.765 3829.86 334.765C3873.72 334.765 3910.89 371.193 3910.89 438.844C3910.89 507.238 3873.72 547.383 3829.86 547.383C3785.26 547.383 3748.08 517.646 3748.08 441.074Z" fill="#F0F0F0"/>
<path d="M4124.03 257.45V478.988C4124.03 579.349 4153.77 635.106 4251.9 635.106C4308.4 635.106 4337.39 610.573 4358.95 574.146L4374.56 626.185H4472.69V257.45H4358.95V451.482C4358.95 519.876 4341.11 547.383 4293.53 547.383C4238.52 547.383 4237.03 503.521 4237.03 450.738V257.45H4124.03Z" fill="#F0F0F0"/>
<path d="M4569.57 343.686H4639.45V626.185H4753.19V257.45H4569.57V343.686ZM4696.7 196.49C4733.87 196.49 4763.6 166.01 4763.6 129.583C4763.6 92.4117 4733.87 62.675 4696.7 62.675C4659.52 62.675 4629.79 92.4117 4629.79 129.583C4629.79 166.01 4659.52 196.49 4696.7 196.49Z" fill="#F0F0F0"/>
<path d="M4864.28 522.106C4864.28 609.086 4895.51 626.185 4986.2 626.185H5058.31V534.001H5026.35C4988.43 534.001 4977.28 527.31 4977.28 492.37V129.583H4864.28V522.106Z" fill="#F0F0F0"/>
<path d="M5282.42 635.106C5322.56 635.106 5366.43 618.751 5397.65 576.376L5412.52 626.185H5520.31C5509.91 571.915 5507.68 519.133 5507.68 481.962V129.583H5394.68V308.002C5370.89 267.115 5322.56 247.042 5282.42 247.042C5187.26 247.042 5119.61 318.41 5119.61 438.844C5119.61 559.277 5187.26 635.106 5282.42 635.106ZM5318.85 334.765C5362.71 334.765 5399.88 365.989 5399.88 441.074C5399.88 517.646 5362.71 547.383 5318.85 547.383C5274.24 547.383 5237.07 507.238 5237.07 438.844C5237.07 371.193 5274.24 334.765 5318.85 334.765Z" fill="#F0F0F0"/>
</svg>
