<?xml version="1.0" encoding="UTF-8"?>
<svg width="1200pt" height="1200pt" version="1.1" viewBox="0 0 1200 1200" xmlns="http://www.w3.org/2000/svg">
 <g>
  <path d="m1003.2 549.6c-13.199-13.199-31.199-20.398-49.199-19.199l-223.2 12 123.6-140.4c18-20.398 22.801-46.801 15.602-70.801-3.6016-16.801-13.199-31.199-28.801-40.801l-294-171.6c-24-14.398-54-10.801-74.398 7.1992l-144 128.4c-26.398 24-28.801 63.602-4.8008 90 24 26.398 63.602 28.801 90 4.8008l109.2-97.199 90 52.801-159.6 183.6c-66 10.801-124.8 40.801-171.6 85.199l82.801 82.801c37.199-33.602 87.602-55.199 141.6-55.199 116.4 0 211.2 94.801 211.2 211.2 0 54-20.398 104.4-55.199 141.6l82.801 82.801c55.199-58.801 88.801-138 88.801-224.4 0-51.602-12-100.8-33.602-144l86.398-4.8008-21.602 258c-2.3984 34.801 24 66 58.801 69.602h4.8008c33.602 0 61.199-25.199 63.602-58.801l28.797-332.4c2.4023-19.199-4.8008-37.199-18-50.398z"/>
  <path d="m884.4 274.8c58.801 0 106.8-48 106.8-108 0-58.801-48-108-106.8-108-58.801 0-108 48-108 108 1.2031 60 49.203 108 108 108z"/>
  <path d="m506.4 1022.4c-116.4 0-211.2-94.801-211.2-211.2 0-44.398 13.199-84 36-118.8l-84-84c-43.199 55.199-69.602 126-69.602 201.6 1.2031 183.6 147.6 330 328.8 330 76.801 0 146.4-26.398 201.6-69.602l-84-84c-33.602 22.801-73.199 36-117.6 36z"/>
 </g>
</svg>