<svg width="5544" height="746" viewBox="0 0 5544 746" fill="none" xmlns="http://www.w3.org/2000/svg">
<path d="M4492.36 328.184L4164.61 656.349L4099.06 590.726L4361.27 328.184L4099.06 65.6417L4164.61 0.064209L4492.36 328.184Z" fill="#F0F0F0"/>
<path fill-rule="evenodd" clip-rule="evenodd" d="M5522.59 74.5625C5522.59 115.95 5489.48 149.061 5448.92 149.061C5408.37 149.061 5375.26 115.95 5374.43 74.5625C5374.43 33.1746 5408.36 0.064209 5448.92 0.064209C5489.48 0.064209 5522.59 34.0016 5522.59 74.5625ZM5496.93 325.374C5509.35 324.547 5521.77 329.513 5530.87 338.617L5530.87 338.621C5539.98 347.726 5544.95 360.142 5543.29 373.386L5523.43 602.675C5521.77 625.853 5502.73 643.236 5479.55 643.236H5476.24C5452.24 640.751 5434.03 619.23 5435.68 595.224L5450.58 417.256L5390.98 420.568C5405.89 450.367 5414.16 484.304 5414.16 519.899C5414.16 579.497 5390.98 634.129 5352.91 674.69L5295.79 617.573C5319.8 591.913 5333.87 557.147 5333.87 519.898C5333.87 439.606 5268.48 374.213 5188.18 374.213C5150.94 374.213 5116.17 389.11 5090.51 412.289L5033.39 355.173C5065.67 324.547 5106.23 303.853 5151.76 296.403L5261.85 169.755L5199.77 133.333L5124.44 200.381C5106.24 216.936 5078.92 215.279 5062.36 197.07C5045.81 178.86 5047.47 151.543 5065.67 134.988L5165.01 46.4175C5179.08 34.001 5199.77 31.5197 5216.33 41.4515L5419.13 159.821C5429.89 166.444 5436.51 176.376 5438.99 187.965C5443.96 204.521 5440.65 222.733 5428.23 236.804L5342.97 333.652L5496.93 325.374ZM5177.01 664.33C5101.91 658.603 5042.49 595.604 5042.49 519.069C5042.49 488.443 5051.6 461.126 5067.33 437.121L5009.38 379.178C4979.59 417.254 4961.37 466.092 4961.37 518.241C4961.74 574.077 4981.57 624.925 5014.35 664.33H4492.35V745.875H5179.52V745.713C5182.4 745.82 5185.28 745.875 5188.18 745.875C5241.16 745.875 5289.17 727.665 5327.24 697.863L5269.3 639.92C5246.12 655.648 5218.81 664.753 5188.18 664.753L5188.18 664.754C5185.27 664.754 5182.39 664.669 5179.52 664.5V664.33H5177.01Z" fill="#F0F0F0"/>
<path d="M0.101562 526.567C0.101562 593.474 57.3446 635.106 127.226 635.106C180.008 635.106 223.126 620.237 250.633 581.58L264.014 626.185H368.836C361.402 594.218 356.198 530.284 356.198 481.962V400.929C356.198 289.417 297.468 247.042 192.646 247.042C107.897 247.042 48.4236 284.213 23.8909 333.279L119.048 367.476C126.482 337.739 151.759 323.614 182.982 323.614C222.383 323.614 244.686 339.226 244.686 381.601V395.726C101.95 406.133 0.101562 436.613 0.101562 526.567ZM246.916 462.633V471.554C246.916 539.205 213.462 557.79 168.857 557.79C139.12 557.79 116.818 542.179 116.818 518.389C116.818 479.732 168.857 469.324 246.916 462.633Z" fill="#F0F0F0"/>
<path d="M469.087 293.134H582.086V626.185H694.342V129.583H608.849C582.086 196.49 547.146 201.694 469.087 201.694V293.134Z" fill="#F0F0F0"/>
<path d="M843.205 293.134H956.205V626.185H1068.46V129.583H982.968C956.205 196.49 921.264 201.694 843.205 201.694V293.134Z" fill="#F0F0F0"/>
<path d="M1182.38 257.45L1323.63 623.954L1319.92 633.619C1308.76 661.869 1300.59 664.099 1253.01 664.099H1230.71V745.875H1267.13C1363.03 745.875 1390.54 719.855 1426.22 626.185L1567.47 257.45H1446.3L1375.67 487.909L1303.56 257.45H1182.38Z" fill="#F0F0F0"/>
<path d="M1638.53 562.251C1638.53 602.395 1671.24 635.106 1711.38 635.106C1750.78 635.106 1783.49 602.395 1783.49 562.251C1783.49 522.106 1750.78 490.139 1711.38 490.139C1671.24 490.139 1638.53 522.106 1638.53 562.251Z" fill="#F0F0F0"/>
<path d="M1892.29 129.583V626.185H1991.16L2005.29 576.376C2029.08 617.264 2078.14 635.106 2117.54 635.106C2212.7 635.106 2280.35 559.277 2280.35 438.844C2280.35 318.41 2212.7 247.042 2117.54 247.042C2078.14 247.042 2029.08 267.115 2005.29 308.002V129.583H1892.29ZM2000.08 441.074C2000.08 365.989 2037.25 334.765 2081.86 334.765C2125.72 334.765 2162.89 371.193 2162.89 438.844C2162.89 507.238 2125.72 547.383 2081.86 547.383C2037.25 547.383 2000.08 517.646 2000.08 441.074Z" fill="#F0F0F0"/>
<path d="M2376.03 257.45V478.988C2376.03 579.349 2405.77 635.106 2503.9 635.106C2560.4 635.106 2589.39 610.573 2610.95 574.146L2626.56 626.185H2724.69V257.45H2610.95V451.482C2610.95 519.876 2593.11 547.383 2545.53 547.383C2490.52 547.383 2489.03 503.521 2489.03 450.738V257.45H2376.03Z" fill="#F0F0F0"/>
<path d="M2821.57 343.686H2891.45V626.185H3005.19V257.45H2821.57V343.686ZM2948.69 196.49C2985.87 196.49 3015.6 166.01 3015.6 129.583C3015.6 92.4117 2985.87 62.675 2948.69 62.675C2911.52 62.675 2881.79 92.4117 2881.79 129.583C2881.79 166.01 2911.52 196.49 2948.69 196.49Z" fill="#F0F0F0"/>
<path d="M3116.28 522.106C3116.28 609.086 3147.51 626.185 3238.2 626.185H3310.31V534.001H3278.35C3240.43 534.001 3229.28 527.31 3229.28 492.37V129.583H3116.28V522.106Z" fill="#F0F0F0"/>
<path d="M3534.42 635.106C3574.56 635.106 3618.43 618.751 3649.65 576.376L3664.52 626.185H3772.31C3761.9 571.915 3759.67 519.133 3759.67 481.962V129.583H3646.68V308.002C3622.89 267.115 3574.56 247.042 3534.42 247.042C3439.26 247.042 3371.61 318.41 3371.61 438.844C3371.61 559.277 3439.26 635.106 3534.42 635.106ZM3570.85 334.765C3614.71 334.765 3651.88 365.989 3651.88 441.074C3651.88 517.646 3614.71 547.383 3570.85 547.383C3526.24 547.383 3489.07 507.238 3489.07 438.844C3489.07 371.193 3526.24 334.765 3570.85 334.765Z" fill="#F0F0F0"/>
</svg>
